<svg xmlns="http://www.w3.org/2000/svg" xmlns:xlink="http://www.w3.org/1999/xlink" version="1.1" x="0px" y="0px" viewBox="0 0 90 112.5" style="enable-background:new 0 0 90 90;" xml:space="preserve"><path d="M87.2,27.7L87.2,27.7l-3.8,0c-1,0-1.8-0.5-1.8-1.3c0-0.9,0.4-1.6,1.8-2v0l0,0v0V23v-3.4c0-1.1-0.9-2-2-2H8.6  c-1.1,0-2,0.9-2,2V23v1.3v0c1.3,0.4,1.8,1.1,1.8,2c0,0.8-0.8,1.3-1.8,1.3l-3.8,0C1.2,27.7,0,29,0,30.5v30.2c0,1.5,1.2,2.8,2.8,2.8  l3.8,0c1,0,1.8,0.5,1.8,1.3c0,0.9-0.4,1.6-1.8,2v0v1.3v3.4c0,1.1,0.9,2,2,2h72.9c1.1,0,2-0.9,2-2v-3.4v-1.3v0l0,0v0  c-1.3-0.4-1.8-1.1-1.8-2c0-0.8,0.8-1.3,1.8-1.3l3.8,0l0,0c1.5,0,2.8-1.2,2.8-2.8V30.5C90,29,88.8,27.7,87.2,27.7z M78.6,52.4  c-1.1,0-1.6-1.7-1.7-4.2h-2.5c0,0-2,4.6-4.2,4.6c-2.2,0-4.2-4.6-4.2-4.6h-2.5c-0.2,2.5-0.6,4.2-1.7,4.2s-1.6-1.7-1.7-4.2H49.8  c-0.9,1.7-2.7,2.9-4.8,2.9c-2.1,0-3.9-1.2-4.8-2.9H29.9c-0.2,2.5-0.6,4.2-1.7,4.2c-1.1,0-1.6-1.7-1.7-4.2H24c0,0-2,4.6-4.2,4.6  c-2.2,0-4.2-4.6-4.2-4.6h-2.5c-0.2,2.5-0.6,4.2-1.7,4.2c-1.5,0-1.8-3.1-1.8-7c0-3.9,0.3-7,1.8-7c1.2,0,1.6,2.1,1.7,5h2.5  c0,0,2-4.6,4.2-4.6c2.2,0,4.2,4.6,4.2,4.6h2.5c0.1-2.9,0.5-5,1.7-5c1.2,0,1.6,2.1,1.7,5h10.2c0.9-1.8,2.7-3.1,4.9-3.1  c2.2,0,4,1.3,4.9,3.1h10.2c0.1-2.9,0.5-5,1.7-5s1.6,2.1,1.7,5H66c0,0,2-4.6,4.2-4.6c2.2,0,4.2,4.6,4.2,4.6h2.5c0.1-2.9,0.5-5,1.7-5  c1.5,0,1.8,3.1,1.8,7C80.4,49.3,80.1,52.4,78.6,52.4z"/><text x="0" y="105" fill="#000000" font-size="5px" font-weight="bold" font-family="'Helvetica Neue', Helvetica, Arial-Unicode, Arial, Sans-serif">Created by Nico Ilk</text><text x="0" y="110" fill="#000000" font-size="5px" font-weight="bold" font-family="'Helvetica Neue', Helvetica, Arial-Unicode, Arial, Sans-serif">from the Noun Project</text></svg>